<?xml version="1.0"?>
<svg xmlns="http://www.w3.org/2000/svg" height="294.79999" viewBox="0 0 288.5 294.79999" width="288.5" fill="#4a274f"><path d="m141.1 153.4a6 6 0 0 1 -6-6c0-81.27 66.12-147.4 147.4-147.4a6 6 0 0 1 0 12c-74.66 0-135.4 60.74-135.4 135.4a6 6 0 0 1 -6 6z" fill="#4a274f"/><path d="m180.82 153.4a6 6 0 0 1 -6-6 107.81 107.81 0 0 1 107.68-107.68 6 6 0 0 1 0 12 95.79 95.79 0 0 0 -95.68 95.68 6 6 0 0 1 -6 6z" fill="#4a274f"/><path d="m221.84 153.4a6 6 0 0 1 -6-6 66.73 66.73 0 0 1 66.66-66.66 6 6 0 0 1 0 12 54.72 54.72 0 0 0 -54.66 54.66 6 6 0 0 1 -6 6z" fill="#4a274f"/><path d="m144.13 123.07a6 6 0 0 1 -5.88-4.67c-13.45-61.67-69.07-106.4-132.25-106.4a6 6 0 0 1 0-12 147.48 147.48 0 0 1 144 115.79 6 6 0 0 1 -4.58 7.14 6.44 6.44 0 0 1 -1.29.14z" fill="#4a274f"/><path d="m107.68 153.4a6 6 0 0 1 -6-6 95.79 95.79 0 0 0 -95.68-95.68 6 6 0 0 1 0-12 107.81 107.81 0 0 1 107.68 107.68 6 6 0 0 1 -6 6z" fill="#4a274f"/><path d="m66.66 153.4a6 6 0 0 1 -6-6 54.72 54.72 0 0 0 -54.66-54.66 6 6 0 0 1 0-12 66.73 66.73 0 0 1 66.66 66.66 6 6 0 0 1 -6 6z" fill="#4a274f"/><path d="m282.5 294.8c-81.28 0-147.4-66.13-147.4-147.4a6 6 0 0 1 12 0c0 74.66 60.74 135.4 135.4 135.4a6 6 0 0 1 0 12z" fill="#4a274f"/><path d="m282.5 255.08a107.81 107.81 0 0 1 -107.68-107.68 6 6 0 1 1 12 0 95.79 95.79 0 0 0 95.68 95.68 6 6 0 0 1 0 12z" fill="#4a274f"/><path d="m282.5 214.06a66.73 66.73 0 0 1 -66.66-66.66 6 6 0 1 1 12 0 54.72 54.72 0 0 0 54.66 54.66 6 6 0 0 1 0 12z" fill="#4a274f"/><path d="m6 294.8a6 6 0 0 1 0-12c63.18 0 118.8-44.73 132.27-106.35a6.0030513 6.0030513 0 0 1 11.73 2.56 147.48 147.48 0 0 1 -144 115.79z" fill="#4a274f"/><path d="m6 255.08a6 6 0 0 1 0-12 95.79 95.79 0 0 0 95.68-95.68 6 6 0 0 1 12 0 107.81 107.81 0 0 1 -107.68 107.68z" fill="#4a274f"/><path d="m6 214.06a6 6 0 0 1 0-12 54.72 54.72 0 0 0 54.66-54.66 6 6 0 0 1 12 0 66.73 66.73 0 0 1 -66.66 66.66z" fill="#4a274f"/></svg>
